<svg width="24" height="24" viewBox="0 0 24 24" fill="none" xmlns="http://www.w3.org/2000/svg">
<circle cx="12" cy="12" r="11.75" stroke="#FF9950" stroke-width="0.5"/>
<path d="M11.6243 16.0717C11.6243 16.493 11.6744 17.2012 12.011 17.2012C12.1014 17.2012 12.1866 17.111 12.2644 16.9326C12.3516 16.7333 12.3977 16.4351 12.3977 16.0717C12.3977 15.0626 12.4129 13.3704 12.4427 11.0414C12.473 8.69349 12.4882 6.99249 12.4882 5.98684C12.4882 5.5244 12.4402 5.14812 12.3455 4.86877C12.2556 4.60289 12.143 4.46826 12.0108 4.46826C11.879 4.46826 11.7671 4.59818 11.6783 4.85598C11.5845 5.12793 11.5369 5.50892 11.5369 5.98684C11.5369 6.99586 11.5518 8.69686 11.5807 11.0414C11.6096 13.3852 11.6243 15.0781 11.6243 16.0717V16.0717Z" fill="#FF9950"/>
<path d="M12.0168 19.354C12.1558 19.354 12.2765 19.3026 12.3757 19.2012C12.4752 19.0993 12.5255 18.9792 12.5255 18.8439C12.5255 18.7043 12.475 18.5828 12.375 18.4831C12.2759 18.3841 12.1553 18.334 12.0167 18.334C11.8729 18.334 11.7506 18.3843 11.653 18.4836C11.5552 18.5832 11.5056 18.7045 11.5056 18.8439C11.5056 18.9837 11.5552 19.105 11.653 19.2044C11.7504 19.3036 11.8727 19.354 12.0168 19.354V19.354Z" fill="#FF9950"/>
</svg>
