<svg width="15" height="14" viewBox="0 0 15 14" fill="none" xmlns="http://www.w3.org/2000/svg">
<path d="M1 10.5556C1 10.9851 1.34822 11.3333 1.77778 11.3333H12.7222C13.1518 11.3333 13.5 10.9851 13.5 10.5556V10.5556C13.5 10.126 13.1518 9.77778 12.7222 9.77778H1.77778C1.34822 9.77778 1 10.126 1 10.5556V10.5556ZM1 6.66667C1 7.09622 1.34822 7.44444 1.77778 7.44444H12.7222C13.1518 7.44444 13.5 7.09622 13.5 6.66667V6.66667C13.5 6.23711 13.1518 5.88889 12.7222 5.88889H1.77778C1.34822 5.88889 1 6.23711 1 6.66667V6.66667ZM1.77778 2C1.34822 2 1 2.34822 1 2.77778V2.77778C1 3.20733 1.34822 3.55556 1.77778 3.55556H12.7222C13.1518 3.55556 13.5 3.20733 13.5 2.77778V2.77778C13.5 2.34822 13.1518 2 12.7222 2H1.77778Z" fill="white"/>
</svg>
